<svg height="512" viewBox="0 0 60 59" width="512" xmlns="http://www.w3.org/2000/svg"><g id="Page-1" fill="none" fill-rule="evenodd"><g id="004---Coffee" fill-rule="nonzero" transform="translate(0 -1)"><path id="Shape" d="m40.887 41.607c-.4992052.0004753-.9222953-.3672809-.991341-.8616884s.2371051-.9640046.717341-1.1003116l13.6-3.886c1.256487-.3619573 2.2545121-1.3188498 2.669-2.559.4002326-1.2053701.1970771-2.5296269-.5460798-3.5595886-.743157-1.0299616-1.9358402-1.6402361-3.2059202-1.6404114h-8.13c-.5522847 0-1-.4477153-1-1s.4477153-1 1-1h8.13c1.9137689-.0000856 3.7109239.9197525 4.8300717 2.4721763s1.4238515 3.5481753.8189283 5.3638237c-.6233291 1.8642264-2.1239775 3.3024257-4.013 3.846l-13.6 3.886c-.0907377.0258928-.1846402.039019-.279.039z" fill="#285680"/><path id="Shape" d="m46 24h-44c-1.10320187.0032948-1.9967052.8967981-2 2v3.5c.00709677 9.365991 6.06705133 17.6534539 14.99 20.5h-13.95c-.39100513-.0066305-.7494929.2168466-.91569375.5708328-.16620085.3539862-.10916275.7725578.14569375 1.0691672 2.3213789 2.7664332 5.74863677 4.3628909 9.36 4.36h.37v2c.0032948 1.1032019.8967981 1.9967052 2 2h24c1.1032019-.0032948 1.9967052-.8967981 2-2v-2h.4c3.6113632.0028909 7.0386211-1.5935668 9.36-4.36.2548565-.2966094.3118946-.715181.1456937-1.0691672-.1662008-.3539862-.5246886-.5774633-.9156937-.5708328h-14.02c8.9440515-2.8250438 15.0259632-11.120399 15.03-20.5v-3.5c-.0032948-1.1032019-.8967981-1.9967052-2-2z" fill="#3b97d3"/><path id="Shape" d="m48 29v.5c-.0040368 9.379601-6.0859485 17.6749562-15.03 20.5h-17.98c-8.92294867-2.8465461-14.98290323-11.134009-14.99-20.5v-.5z" fill="#84b5cb"/><path id="Shape" d="m38 56v2c-.0032948 1.1032019-.8967981 1.9967052-2 2h-24c-1.1032019-.0032948-1.9967052-.8967981-2-2v-2z" fill="#2980ba"/><path id="Shape" d="m11.336 44.747c-.2085065.0002754-.4117987-.065156-.581-.187-3.76519753-2.690705-6.38686901-6.6933114-7.349-11.22-.11542751-.5401345.22886551-1.0715725.769-1.187s1.07157249.2288655 1.187.769c.85801896 4.039342 3.19721395 7.6111005 6.557 10.012.3533438.2530615.5027755.7053772.369727 1.1191284s-.5181101.6941918-.952727.6938716z" fill="#fff"/><g fill="#cb8252"><path id="Shape" d="m13 21c-.2006371.0002886-.3966265-.0603914-.562-.174-2.015-1.372-2.438-2.838-2.438-3.826s.423-2.454 2.437-3.826c.8382579-.4335091 1.4190386-1.2413256 1.563-2.174-.1439614-.9326744-.7247421-1.74049093-1.563-2.174-2.014-1.372-2.437-2.838-2.437-3.826s.423-2.454 2.437-3.826c.2948842-.21309051.6822333-.24921441 1.011435-.0943257.3292016.15488871.5483082.47634884.5721248.83938741s-.151415.71036865-.4575598.90693829c-.8382579.43350907-1.4190386 1.24132562-1.563 2.174.1439614.93267438.7247421 1.74049093 1.563 2.174 2.014 1.372 2.437 2.838 2.437 3.826s-.423 2.454-2.437 3.826c-.8382579.4335091-1.4190386 1.2413256-1.563 2.174.1439614.9326744.7247421 1.7404909 1.563 2.174.3622376.2471941.5211509.7015608.3919393 1.1206376-.1292115.4190769-.5163952.7050687-.9549393.7053624z"/><path id="Shape" d="m24 21c-.2006371.0002886-.3966265-.0603914-.562-.174-2.015-1.372-2.438-2.838-2.438-3.826s.423-2.454 2.437-3.826c.8382579-.4335091 1.4190386-1.2413256 1.563-2.174-.1439614-.9326744-.7247421-1.74049093-1.563-2.174-2.014-1.372-2.437-2.838-2.437-3.826s.423-2.454 2.437-3.826c.455729-.29261478 1.0615807-.16925376 1.3666072.27826289s.1983592 1.05652927-.2406072 1.37373711c-.8382579.43350907-1.4190386 1.24132562-1.563 2.174.1439614.93267438.7247421 1.74049093 1.563 2.174 2.014 1.372 2.437 2.838 2.437 3.826s-.423 2.454-2.437 3.826c-.8382579.4335091-1.4190386 1.2413256-1.563 2.174.1439614.9326744.7247421 1.7404909 1.563 2.174.3622376.2471941.5211509.7015608.3919393 1.1206376-.1292115.4190769-.5163952.7050687-.9549393.7053624z"/><path id="Shape" d="m35 21c-.2006371.0002886-.3966265-.0603914-.562-.174-2.015-1.372-2.438-2.838-2.438-3.826s.423-2.454 2.437-3.826c.8382579-.4335091 1.4190386-1.2413256 1.563-2.174-.1439614-.9326744-.7247421-1.74049093-1.563-2.174-2.014-1.372-2.437-2.838-2.437-3.826s.423-2.454 2.437-3.826c.2948842-.21309051.6822333-.24921441 1.011435-.0943257.3292016.15488871.5483082.47634884.5721248.83938741s-.151415.71036865-.4575598.90693829c-.8382579.43350907-1.4190386 1.24132562-1.563 2.174.1439614.93267438.7247421 1.74049093 1.563 2.174 2.014 1.372 2.437 2.838 2.437 3.826s-.423 2.454-2.437 3.826c-.8382579.4335091-1.4190386 1.2413256-1.563 2.174.1439614.9326744.7247421 1.7404909 1.563 2.174.3622376.2471941.5211509.7015608.3919393 1.1206376-.1292115.4190769-.5163952.7050687-.9549393.7053624z"/></g></g></g></svg>