<svg height="512" viewBox="0 0 60 60" width="512" xmlns="http://www.w3.org/2000/svg"><g id="Page-1" fill="none" fill-rule="evenodd"><g id="029---Ice-Cubes" fill="rgb(0,0,0)" fill-rule="nonzero"><path id="Shape" d="m44 28c-3.4656679-.0111761-6.8388754 1.1174429-9.6 3.212-.4418278.3330277-.5300277.9611722-.197 1.403s.9611722.5300277 1.403.197c3.7681652-2.835681 8.7125412-3.5791425 13.148-1.977 5.8006983 2.0855945 9.5547432 7.7198437 9.2456595 13.8763259-.3090836 6.1564822-4.6085599 11.3864077-10.5889768 12.8805362-5.9804168 1.4941284-12.2344176-1.0991497-15.4026827-6.3868621-.2844267-.4735841-.8989158-.6269266-1.3725-.3425-.4735841.2844267-.6269266.8989158-.3425 1.3725 3.6226779 6.0402322 10.7691887 9.0010906 17.6021742 7.2927259s11.7451905-7.6841108 12.0989795-14.7185286-3.9340563-13.4728712-10.5611537-15.8581973c-1.7412339-.633093-3.580249-.9549968-5.433-.951z"/><path id="Shape" d="m38.488 46.027-3.229-.865c-.3486122-.1036823-.7260305-.0099144-.9855847.2448642-.2595541.2547786-.3603139.6303908-.2631225.9808681.0971913.3504773.3770073.6205514.7307072.7052677l2.664.714-.714 2.665c-.0695652.256888-.0338589.5309094.0992134.7613927.1330722.2304833.3525313.3984129.6097866.4666073.0846917.0233384.1721515.0351119.26.035.4524951-.0005181.8482565-.3048238.965-.742l.865-3.23 3.51-2.031v4.055l-2.364 2.364c-.3789722.3923789-.3735524 1.0160848.0121814 1.4018186s1.0094397.3911536 1.4018186.0121814l1.95-1.95 1.95 1.95c.3923789.3789722 1.0160848.3735524 1.4018186-.0121814s.3911536-1.0094397.0121814-1.4018186l-2.364-2.364v-4.055l3.512 2.027.865 3.23c.1167435.4371762.5125049.7414819.965.742.0878485.0001119.1753083-.0116616.26-.035.5330514-.1429996.8494732-.6908077.707-1.224l-.709-2.665 2.664-.714c.3536999-.0847163.6335159-.3547904.7307072-.7052677.0971914-.3504773-.0035684-.7260895-.2631225-.9808681-.2595542-.2547786-.6369725-.3485465-.9855847-.2448642l-3.229.865-3.517-2.027 3.512-2.027 3.229.865c.0846917.0233384.1721515.0351119.26.035.5017827-.0002717.9256677-.3723675.9909573-.8698845.0652897-.4975171-.2482351-.9663838-.7329573-1.0961155l-2.659-.714.714-2.665c.1398151-.5324122-.1769484-1.0777088-.7087028-1.2200053-.5317543-.1422966-1.0785222.1719204-1.2232972.7030053l-.865 3.23-3.517 2.027v-4.055l2.364-2.364c.3789722-.3923789.3735524-1.0160848-.0121814-1.4018186s-1.0094397-.3911536-1.4018186-.0121814l-1.95 1.95-1.95-1.95c-.3923789-.3789722-1.0160848-.3735524-1.4018186.0121814s-.3911536 1.0094397-.0121814 1.4018186l2.364 2.364v4.055l-3.512-2.027-.865-3.23c-.144775-.5310849-.6915429-.8453019-1.2232972-.7030053-.5317544.1422965-.8485179.6875931-.7087028 1.2200053l.714 2.665-2.664.714c-.484906.1297809-.7984552.5989382-.732892 1.0966112.0655632.4976729.4899191.8696189.991892.8693888.0878485.0001119.1753083-.0116616.26-.035l3.229-.865 3.511 2.027z"/><path id="Shape" d="m0 25v20c.00330738 3.3123376 2.68766243 5.9966926 6 6h20c3.3123376-.0033074 5.9966926-2.6876624 6-6v-20c-.0033074-3.3123376-2.6876624-5.9966926-6-6h-8.679l-1.268-2.661c-.9509215-1.9955273-.1066755-4.3842021 1.887-5.339l18.049-8.607c1.9959196-.94840985 4.382982-.10428663 5.339 1.888l8.61 18.051c.5340059 1.1050781.5251405 2.395364-.024 3.493-.168432.3211003-.1498524.7082182.0485568 1.0117121s.545559.4758089.9072577.4503362.681271-.2447419.8351855-.5730483c.82522-1.6479512.8388886-3.5855707.037-5.245l-8.609-18.05c-1.4338985-2.98364541-5.0085961-4.24864152-8-2.831l-18.054 8.612c-1.4363937.68532803-2.5416592 1.9132593-3.0725912 3.4135969-.5309319 1.5003375-.4440273 3.150148.2415912 4.5864031l.858 1.8h-9.106c-3.31233757.0033074-5.99669262 2.6876624-6 6zm30 0v20c0 2.209139-1.790861 4-4 4h-20c-2.209139 0-4-1.790861-4-4v-20c0-2.209139 1.790861-4 4-4h20c2.209139 0 4 1.790861 4 4z"/><path id="Shape" d="m27 41c-.5522847 0-1 .4477153-1 1v3h-3c-.5522847 0-1 .4477153-1 1s.4477153 1 1 1h3c1.1045695 0 2-.8954305 2-2v-3c0-.5522847-.4477153-1-1-1z"/><path id="Shape" d="m34.3 7.63 3.418-1.63 1.588 3.329c.1656895.34689426.5155682.56809533.9.569.1490412-.00047343.296044-.03466013.43-.1.4963118-.23699736.7080799-.8303056.474-1.328l-1.588-3.328c-.4955219-.97851933-1.67347-1.39364357-2.673-.942l-3.41 1.626c-.459488.25808758-.639816.82847882-.4121922 1.30379538.2276238.47531655.7850641.69239876 1.2741922.49620462z"/><path id="Shape" d="m4.293 29.707c.39049985.3903819 1.02350015.3903819 1.414 0l5-5c.3789722-.3923789.3735524-1.0160848-.0121814-1.4018186s-1.00943971-.3911536-1.4018186-.0121814l-5 5c-.39038194.3904999-.39038194 1.0235001 0 1.414z"/><path id="Shape" d="m4.293 34.293c-.25995658.2510745-.3642126.6228779-.27269716.9725073.09151544.3496295.3645604.6226744.71418984.7141899.34962943.0915154.72143285-.0127406.97250732-.2726972l11-11c.3789722-.3923789.3735524-1.0160848-.0121814-1.4018186s-1.0094397-.3911536-1.4018186-.0121814z"/></g></g></svg>