<svg height="512" viewBox="0 0 60 60" width="512" xmlns="http://www.w3.org/2000/svg"><g id="010---Vegan-Symbol"><path id="Shape" d="m30 60c16.5685425 0 30-13.4314575 30-30s-13.4314575-30-30-30-30 13.4314575-30 30 13.4314575 30 30 30zm0-58c15.463973 0 28 12.536027 28 28s-12.536027 28-28 28-28-12.536027-28-28 12.536027-28 28-28z"/><path id="Shape" d="m11.44 19.57c9.9 6.25 15.56 16.08 15.56 26.98v3.35c-.0223143 1.6823695 1.3178031 3.0671574 3 3.1 1.6568542 0 3-1.3431458 3-3v-3.45c0-6.38 2.47-12.73 7.34-18.86.5460715-.6881398.7630846-1.5810509.5937613-2.4430603-.1693232-.8620093-.7079665-1.6064879-1.4737613-2.0369397-1.3193656-.7071664-2.9566653-.3560143-3.87.83-.34.42-.65.86-1 1.29-1.0338121-2.2342334-.683085-4.8646862.9-6.75 1.6-2 7-3.07 9.7-3.45.57 1.71 1.71 6.21-.7 9.17-.2268636.2768808-.2887801.6537596-.1624261.9886697s.4217823.5769707.775.635c.3532176.0580293.7105625-.0767889.9374261-.3536697 3.77-4.63.87-11.63.74-11.93-.1701412-.3937818-.572479-.6351845-1-.6-.93.1-9.22 1.09-11.81 4.28-2.3774319 2.764347-2.6266598 6.772422-.61 9.81-1.1768426 1.7348301-2.2198585 3.5567649-3.12 5.45 0 .14-3.48-10.39-15.54-18-1.255291-.812188-2.9125701-.6055553-3.93.49-.5717082.6613216-.82652148 1.539118-.6977844 2.4037701.1287371.8646521.6282176 1.6301426 1.3677844 2.0962299zm.85-3.21c.3690355-.3541202.9346573-.404028 1.36-.12 6.5699109 4.0410161 11.7263417 10.0184235 14.76 17.11.3068865.7215845 1.0071379 1.1972654 1.7910307 1.2166474.7838928.0193819 1.5067968-.421111 1.8489693-1.1266474 1.391193-2.9078518 3.112525-5.645877 5.13-8.16.3004007-.415233.8660986-.5361455 1.31-.28.2600698.1402714.4447886.3883794.5045921.677751s-.0114319.5903768-.1945921.822249c-5.16 6.44-7.8 13.2-7.8 20.05v3.45c.004336.2974817-.1240116.5814469-.3501732.7747474s-.5266495.2758615-.8198268.2252526c-.5050346-.1196038-.8535805-.5815321-.83-1.1v-3.35c0-11.6-6-22-16.52-28.67-.2481639-.1604619-.4126453-.4224723-.4493003-.7157125-.036655-.2932401.0582705-.5876764.2593003-.8042875z"/></g></svg>