<svg height="512" viewBox="0 0 60 60" width="512" xmlns="http://www.w3.org/2000/svg"><g id="010---Vegan-Symbol" fill="none"><g id="Icons" transform="translate(1)"><path id="Shape" d="m58 30c.0105093 7.9565365-3.2485152 15.5679184-9.0137462 21.0514113s-13.5302196 8.3573974-21.4762538 7.9485887c-15.36-.44-27.51-13.49-27.51-29s12.15-28.56 27.49-29c7.9494044-.41448685 15.7196946 2.45688339 21.4893733 7.94100933 5.7696787 5.48412597 9.0314252 13.09879517 9.0206267 21.05899067z" fill="#549414"/><path id="Shape" d="m55 30c.0209501 15.4446302-12.0663057 28.1958276-27.49 29-15.36-.44-27.51-13.49-27.51-29s12.15-28.56 27.49-29c15.4315765.79389884 27.5304081 13.5480288 27.51 29z" fill="#60a917"/><path id="Shape" d="m44.31 24.94s-2.56 3.44-8.93 3.06l-1.77-.94c-2.16-2.35-2.13-6.3.16-9.11 1.92-2.36 8.15-3.6 11.14-3.92 0-.03 2.84 6.69-.6 10.91z" fill="#cfd8dc"/><path id="Shape" d="m41.31 24.94s-1.79 2.4-6.1 3l-1.6-.85c-2.16-2.35-2.13-6.3.16-9.11 1.52-1.87 5.54-2.94 8.31-3.47.56 1.54 2.13 6.87-.77 10.43z" fill="#f5f5f5"/><path id="Shape" d="m38.58 27.07c-5.02 6.31-7.58 12.86-7.58 19.48v3.45c-.0359508.9513673-.7375457 1.7455207-1.6772223 1.8984913-.9396767.1529706-1.8569323-.3776489-2.1927777-1.2684913-.17-.5-.13-.42-.13-4.09 0-11.25-5.85-21.39-16-27.83-.490514-.3135084-.8200881-.8251774-.9026845-1.4014319-.0825965-.5762545.0899827-1.1598988.4726845-1.5985681.6886557-.7293293 1.8011247-.8599601 2.64-.31 6.7390122 4.161645 12.0216243 10.3107172 15.12 17.6.1524174.3612888.5019278.6001565.8939032.6109251.3919753.0107685.7540732-.2085496.9260968-.5609251 1.4178459-2.9797364 3.1762426-5.7851172 5.24-8.36.6106174-.7993903 1.7075302-1.0440862 2.6-.58.5025846.2871416.8561184.7779412.969267 1.3456022.1131487.5676609-.0251865 1.156502-.379267 1.6143978z" fill="#f5f5f5"/><path id="Shape" d="m38.58 27.07c-5.02 6.31-7.58 12.86-7.58 19.48v3.45c-.0139117.8228218-.5304127 1.5531315-1.3015886 1.840389s-1.6395892.0728184-2.1884114-.540389c.3182133-.3579866.4927473-.821036.49-1.3v-3.45c0-6.62 2.54-13.17 7.56-19.48.5949473-.7541214.5697573-1.8246952-.06-2.55.6313853-.7070177 1.6651622-.8889624 2.5-.44.5105409.2880432.8690119.7855646.9806406 1.3610296.1116286.575465-.0348246 1.1709315-.4006406 1.6289704z" fill="#cfd8dc"/></g><g id="Layer_2" fill="#000"><path id="Shape" d="m30 60c16.5685425 0 30-13.4314575 30-30s-13.4314575-30-30-30-30 13.4314575-30 30 13.4314575 30 30 30zm0-58c15.463973 0 28 12.536027 28 28s-12.536027 28-28 28-28-12.536027-28-28 12.536027-28 28-28z"/><path id="Shape" d="m11.44 19.57c9.9 6.25 15.56 16.08 15.56 26.98v3.35c-.0223143 1.6823695 1.3178031 3.0671574 3 3.1 1.6568542 0 3-1.3431458 3-3v-3.45c0-6.38 2.47-12.73 7.34-18.86.5460715-.6881398.7630846-1.5810509.5937613-2.4430603-.1693232-.8620093-.7079665-1.6064879-1.4737613-2.0369397-1.3193656-.7071664-2.9566653-.3560143-3.87.83-.34.42-.65.86-1 1.29-1.0338121-2.2342334-.683085-4.8646862.9-6.75 1.6-2 7-3.07 9.7-3.45.57 1.71 1.71 6.21-.7 9.17-.2268636.2768808-.2887801.6537596-.1624261.9886697s.4217823.5769707.775.635c.3532176.0580293.7105625-.0767889.9374261-.3536697 3.77-4.63.87-11.63.74-11.93-.1701412-.3937818-.572479-.6351845-1-.6-.93.1-9.22 1.09-11.81 4.28-2.3774319 2.764347-2.6266598 6.772422-.61 9.81-1.1768426 1.7348301-2.2198585 3.5567649-3.12 5.45 0 .14-3.48-10.39-15.54-18-1.255291-.812188-2.9125701-.6055553-3.93.49-.5717082.6613216-.82652148 1.539118-.6977844 2.4037701.1287371.8646521.6282176 1.6301426 1.3677844 2.0962299zm.85-3.21c.3690355-.3541202.9346573-.404028 1.36-.12 6.5699109 4.0410161 11.7263417 10.0184235 14.76 17.11.3068865.7215845 1.0071379 1.1972654 1.7910307 1.2166474.7838928.0193819 1.5067968-.421111 1.8489693-1.1266474 1.391193-2.9078518 3.112525-5.645877 5.13-8.16.3004007-.415233.8660986-.5361455 1.31-.28.2600698.1402714.4447886.3883794.5045921.677751s-.0114319.5903768-.1945921.822249c-5.16 6.44-7.8 13.2-7.8 20.05v3.45c.004336.2974817-.1240116.5814469-.3501732.7747474s-.5266495.2758615-.8198268.2252526c-.5050346-.1196038-.8535805-.5815321-.83-1.1v-3.35c0-11.6-6-22-16.52-28.67-.2481639-.1604619-.4126453-.4224723-.4493003-.7157125-.036655-.2932401.0582705-.5876764.2593003-.8042875z"/></g></g></svg>