<svg height="512" viewBox="0 0 61 60" width="512" xmlns="http://www.w3.org/2000/svg"><g id="Page-1" fill="none" fill-rule="evenodd"><g id="004---Coffee" fill="rgb(0,0,0)" fill-rule="nonzero" transform="translate(0 -1)"><path id="Shape" d="m54.13 26h-4.13c0-1.6568542-1.3431458-3-3-3h-44c-1.65685425 0-3 1.3431458-3 3v3.5c-.01831429 8.0544796 4.28740008 15.4991888 11.278 19.5h-9.238c-.78002864-.0078451-1.49292985.440108-1.82429278 1.1462983-.33136294.7061904-.22026637 1.5407847.28429278 2.1357017 2.36766413 2.829296 5.81443727 4.5345416 9.5 4.7v1.018c0 1.6568542 1.3431458 3 3 3h24c1.6568542 0 3-1.3431458 3-3v-1.013c3.6940471-.1588233 7.1507753-1.8646845 9.524-4.7.5070718-.593916.6205501-1.4292609.2902926-2.1369247-.3302574-.7076638-1.0433914-1.1572396-1.8242926-1.1500753h-9.274c3.6736483-2.0927044 6.6766996-5.1866207 8.659-8.921l8.391-2.4c1.8890225-.5435743 3.3896709-1.9817736 4.013-3.846.6037274-1.8152732.2984411-3.8100757-.8205595-5.3617011-1.1190006-1.5516253-2.9154053-2.4710636-4.8284405-2.4712989zm-6.137 25c-2.1287557 2.542529-5.2769797 4.0080121-8.593 4h-16.4c-.5522847 0-1 .4477153-1 1s.4477153 1 1 1h15v1c0 .5522847-.4477153 1-1 1h-24c-.5522847 0-1-.4477153-1-1v-1h6c.5522847 0 1-.4477153 1-1s-.4477153-1-1-1h-7.37c-3.31518611.0080949-6.46252405-1.4574874-8.59-4zm-14.193-2h-17.636c-8.28151242-2.6725893-13.95942705-10.2998785-14.144-19h5.98c.55228475 0 1-.4477153 1-1s-.44771525-1-1-1h-6v-2c0-.5522847.44771525-1 1-1h44c.5522847 0 1 .4477153 1 1v2h-35c-.5522847 0-1 .4477153-1 1s.4477153 1 1 1h34.98c-.1752086 8.7147173-5.8753446 16.3524172-14.18 19zm24.082-15.8c-.4146478 1.2389057-1.411738 2.1948711-2.667 2.557l-6.755 1.93c1.0165261-2.6099058 1.5387405-5.3861194 1.54-8.187v-1.5h4.13c1.27008.0001753 2.4627632.6104498 3.2059202 1.6404114.7431569 1.0299617.9463124 2.3542185.5460798 3.5595886z"/><path id="Shape" d="m6.362 32.922c-.11542751-.5401345-.64686551-.8844275-1.187-.769s-.88442751.6468655-.769 1.187c.96213099 4.5266886 3.58380247 8.529295 7.349 11.22.2901662.2155089.6740432.2576651 1.0040632.1102631.3300199-.1474019.554814-.4614184.5879681-.8213369s-.1304924-.7097163-.4280313-.9149262c-3.35978605-2.4008995-5.69898104-5.972658-6.557-10.012z"/><path id="Shape" d="m13.437 13.174c-2.014 1.372-2.437 2.838-2.437 3.826s.423 2.454 2.437 3.826c.455729.2926148 1.0615807.1692538 1.3666072-.2782629.3050265-.4475166.1983592-1.0565293-.2406072-1.3737371-.8382579-.4335091-1.4190386-1.2413256-1.563-2.174.1439614-.9326744.7247421-1.7404909 1.563-2.174 2.014-1.372 2.437-2.838 2.437-3.826s-.423-2.454-2.437-3.826c-.8382579-.43350907-1.4190386-1.24132562-1.563-2.174.1439614-.93267438.7247421-1.74049093 1.563-2.174.3061448-.19656964.4813764-.54389972.4575598-.90693829s-.2429232-.6844987-.5721248-.83938741c-.3292017-.15488871-.7165508-.11876481-1.011435.0943257-2.014 1.372-2.437 2.838-2.437 3.826s.423 2.454 2.437 3.826c.8382579.43350907 1.4190386 1.2413256 1.563 2.174-.1439614.9326744-.7247421 1.7404909-1.563 2.174z"/><path id="Shape" d="m24.437 13.174c-2.014 1.372-2.437 2.838-2.437 3.826s.423 2.454 2.437 3.826c.2948842.2130905.6822333.2492144 1.011435.0943257.3292016-.1548887.5483082-.4763488.5721248-.8393874s-.151415-.7103687-.4575598-.9069383c-.8382579-.4335091-1.4190386-1.2413256-1.563-2.174.1439614-.9326744.7247421-1.7404909 1.563-2.174 2.014-1.372 2.437-2.838 2.437-3.826s-.423-2.454-2.437-3.826c-.8382579-.43350907-1.4190386-1.24132562-1.563-2.174.1439614-.93267438.7247421-1.74049093 1.563-2.174.4389664-.31720784.5456337-.92622046.2406072-1.37373711s-.9108782-.57087767-1.3666072-.27826289c-2.014 1.372-2.437 2.838-2.437 3.826s.423 2.454 2.437 3.826c.8382579.43350907 1.4190386 1.2413256 1.563 2.174-.1439614.9326744-.7247421 1.7404909-1.563 2.174z"/><path id="Shape" d="m35.437 13.174c-2.014 1.372-2.437 2.838-2.437 3.826s.423 2.454 2.437 3.826c.2948842.2130905.6822333.2492144 1.011435.0943257.3292016-.1548887.5483082-.4763488.5721248-.8393874s-.151415-.7103687-.4575598-.9069383c-.8382579-.4335091-1.4190386-1.2413256-1.563-2.174.1439614-.9326744.7247421-1.7404909 1.563-2.174 2.014-1.372 2.437-2.838 2.437-3.826s-.423-2.454-2.437-3.826c-.8382579-.43350907-1.4190386-1.24132562-1.563-2.174.1439614-.93267438.7247421-1.74049093 1.563-2.174.3061448-.19656964.4813764-.54389972.4575598-.90693829s-.2429232-.6844987-.5721248-.83938741c-.3292017-.15488871-.7165508-.11876481-1.011435.0943257-2.014 1.372-2.437 2.838-2.437 3.826s.423 2.454 2.437 3.826c.8382579.43350907 1.4190386 1.2413256 1.563 2.174-.1439614.9326744-.7247421 1.7404909-1.563 2.174z"/></g></g></svg>